<svg width="24" height="24" viewBox="0 0 24 24" fill="none" xmlns="http://www.w3.org/2000/svg">
<path d="M22.61 7.05011L17 1.39011C16.9066 1.29743 16.7957 1.22411 16.6739 1.17434C16.5521 1.12458 16.4216 1.09935 16.29 1.10011C16.0277 1.10122 15.7763 1.20537 15.59 1.39011L1.39001 15.5401C1.20375 15.7275 1.09921 15.9809 1.09921 16.2451C1.09921 16.5093 1.20375 16.7628 1.39001 16.9501L7.05001 22.6101C7.14345 22.7028 7.25426 22.7761 7.3761 22.8259C7.49794 22.8757 7.6284 22.9009 7.76001 22.9001C8.02235 22.899 8.27374 22.7949 8.46001 22.6101L11.29 19.7801L19.78 11.2901L22.61 8.46011C22.7963 8.27275 22.9008 8.0193 22.9008 7.75511C22.9008 7.49093 22.7963 7.23748 22.61 7.05011ZM19.07 9.17011L18.36 8.46011C18.1726 8.27386 17.9192 8.16932 17.655 8.16932C17.3908 8.16932 17.1374 8.27386 16.95 8.46011C16.8563 8.55308 16.7819 8.66368 16.7311 8.78554C16.6803 8.9074 16.6542 9.0381 16.6542 9.17011C16.6542 9.30213 16.6803 9.43283 16.7311 9.55469C16.7819 9.67655 16.8563 9.78715 16.95 9.88011L17.66 10.5901L16.24 12.0001L14.12 9.88011C13.9287 9.71629 13.6826 9.63068 13.431 9.6404C13.1793 9.65012 12.9405 9.75446 12.7624 9.93255C12.5843 10.1106 12.48 10.3494 12.4703 10.6011C12.4606 10.8527 12.5462 11.0988 12.71 11.2901L14.83 13.4101L13.41 14.8301L12.71 14.1201C12.5217 13.9318 12.2663 13.826 12 13.826C11.7337 13.826 11.4783 13.9318 11.29 14.1201C11.1017 14.3084 10.9959 14.5638 10.9959 14.8301C10.9959 15.0964 11.1017 15.3518 11.29 15.5401L12 16.2401L10.59 17.6601L8.46001 15.5401C8.27264 15.3539 8.01919 15.2493 7.75501 15.2493C7.49082 15.2493 7.23737 15.3539 7.05001 15.5401C6.86375 15.7275 6.75921 15.9809 6.75921 16.2451C6.75921 16.5093 6.86375 16.7628 7.05001 16.9501L9.17001 19.0701L7.76001 20.4901L3.51001 16.2401L16.24 3.51011L20.49 7.76011L19.07 9.17011Z" fill="#2C85BC"/>
</svg>
