<svg width="390" height="67" viewBox="0 0 390 67" fill="none" xmlns="http://www.w3.org/2000/svg">
<rect width="390" height="66.56" fill="#F8F8F8"/>
<path opacity="0.3" d="M46.0001 18.0667C53.8201 18.0667 60.2792 23.9125 61.2184 31.4833H53.4367C52.5742 28.1675 49.5651 25.7333 46.0001 25.7333C42.4351 25.7333 39.4259 28.1675 38.5826 31.4833H30.7817C31.7209 23.9125 38.1801 18.0667 46.0001 18.0667Z" fill="#005FFF"/>
<path d="M45.9999 14.2332C35.4199 14.2332 26.8333 22.8198 26.8333 33.3998C26.8333 43.9798 35.4199 52.5665 45.9999 52.5665C56.5799 52.5665 65.1666 43.9798 65.1666 33.3998C65.1666 22.8198 56.5799 14.2332 45.9999 14.2332ZM45.9999 18.0665C53.8199 18.0665 60.2791 23.9123 61.2183 31.4832H53.4366C52.5741 28.1673 49.5649 25.7332 45.9999 25.7332C42.4349 25.7332 39.4258 28.1673 38.5824 31.4832H30.7816C31.7208 23.9123 38.1799 18.0665 45.9999 18.0665ZM49.8333 33.3998C49.8333 35.5082 48.1083 37.2332 45.9999 37.2332C43.8916 37.2332 42.1666 35.5082 42.1666 33.3998C42.1666 31.2915 43.8916 29.5665 45.9999 29.5665C48.1083 29.5665 49.8333 31.2915 49.8333 33.3998ZM45.9999 48.7332C38.1799 48.7332 31.7208 42.8873 30.7816 35.3165H38.5633C39.4066 38.6323 42.4158 41.0665 45.9808 41.0665C49.5458 41.0665 52.5549 38.6323 53.3983 35.3165H61.1799C60.2791 42.8873 53.8199 48.7332 45.9999 48.7332Z" fill="#005FFF"/>
<path d="M94.264 25.5999C98.752 25.5999 101.56 27.9279 101.56 31.6959C101.56 35.4399 98.752 37.7679 94.264 37.7679H90.88V42.3999H86.992V25.5999H94.264ZM94.048 34.5999C96.424 34.5999 97.624 33.5199 97.624 31.6959C97.624 29.8479 96.424 28.7679 94.048 28.7679H90.88V34.5999H94.048ZM110.192 42.5919C106.088 42.5919 103.088 39.8319 103.088 35.9439C103.088 32.0559 106.088 29.2959 110.192 29.2959C114.296 29.2959 117.272 32.0559 117.272 35.9439C117.272 39.8319 114.296 42.5919 110.192 42.5919ZM110.192 39.5199C112.064 39.5199 113.48 38.1759 113.48 35.9439C113.48 33.7119 112.064 32.3679 110.192 32.3679C108.32 32.3679 106.88 33.7119 106.88 35.9439C106.88 38.1759 108.32 39.5199 110.192 39.5199ZM129.399 42.3999L125.319 37.3359L123.519 39.1119V42.3999H119.775V24.5919H123.519V34.6719L128.991 29.4879H133.455L128.079 34.9599L133.935 42.3999H129.399ZM146 24.3759L141.656 27.8319H138.728L141.968 24.3759H146ZM147.704 35.9919C147.704 36.2799 147.656 36.6879 147.632 36.9999H137.864C138.224 38.6079 139.592 39.5919 141.56 39.5919C142.928 39.5919 143.912 39.1839 144.8 38.3439L146.792 40.5039C145.592 41.8719 143.792 42.5919 141.464 42.5919C137 42.5919 134.096 39.7839 134.096 35.9439C134.096 32.0799 137.048 29.2959 140.984 29.2959C144.776 29.2959 147.704 31.8399 147.704 35.9919ZM141.008 32.1279C139.304 32.1279 138.08 33.1599 137.816 34.8159H144.176C143.912 33.1839 142.688 32.1279 141.008 32.1279ZM159.605 24.5919H163.349V42.3999H159.773V40.9119C158.837 42.0399 157.469 42.5919 155.741 42.5919C152.093 42.5919 149.285 39.9999 149.285 35.9439C149.285 31.8879 152.093 29.2959 155.741 29.2959C157.325 29.2959 158.669 29.7999 159.605 30.8559V24.5919ZM156.389 39.5199C158.237 39.5199 159.677 38.1759 159.677 35.9439C159.677 33.7119 158.237 32.3679 156.389 32.3679C154.517 32.3679 153.077 33.7119 153.077 35.9439C153.077 38.1759 154.517 39.5199 156.389 39.5199ZM179.462 35.9919C179.462 36.2799 179.414 36.6879 179.39 36.9999H169.622C169.982 38.6079 171.35 39.5919 173.318 39.5919C174.686 39.5919 175.67 39.1839 176.558 38.3439L178.55 40.5039C177.35 41.8719 175.55 42.5919 173.222 42.5919C168.758 42.5919 165.854 39.7839 165.854 35.9439C165.854 32.0799 168.806 29.2959 172.742 29.2959C176.534 29.2959 179.462 31.8399 179.462 35.9919ZM172.766 32.1279C171.062 32.1279 169.838 33.1599 169.574 34.8159H175.934C175.67 33.1839 174.446 32.1279 172.766 32.1279ZM194.059 42.3999H189.811L186.979 38.4399L184.051 42.3999H179.971L184.939 35.8959L180.139 29.4879H184.339L187.075 33.2559L189.883 29.4879H193.867L189.067 35.7999L194.059 42.3999Z" fill="#005FFF"/>
</svg>
