<svg width="20" height="20" viewBox="0 0 20 20" fill="none" xmlns="http://www.w3.org/2000/svg">
<circle cx="10.0" cy="10.0" r="10.0" fill="#FFC600" />

<path d="M17.5582 14.0251L15.8332 12.2584C15.4622 11.9057 14.9942 11.672 14.4893 11.5874C13.9844 11.5027 13.4657 11.571 12.9999 11.7834L12.2499 11.0334C13.1337 9.8525 13.5373 8.38064 13.3795 6.9141C13.2217 5.44757 12.5142 4.09526 11.3994 3.12941C10.2846 2.16355 8.84536 1.65587 7.3713 1.70856C5.89724 1.76125 4.49787 2.3704 3.45489 3.41338C2.4119 4.45636 1.80275 5.85574 1.75006 7.32979C1.69737 8.80385 2.20506 10.2431 3.17091 11.3579C4.13676 12.4727 5.48907 13.1802 6.95561 13.338C8.42214 13.4958 9.89401 13.0922 11.0749 12.2084L11.8166 12.9501C11.5792 13.4164 11.4941 13.9455 11.5733 14.4628C11.6525 14.9801 11.8921 15.4595 12.2582 15.8334L14.0249 17.6001C14.4937 18.0682 15.1291 18.3312 15.7916 18.3312C16.4541 18.3312 17.0895 18.0682 17.5582 17.6001C17.7964 17.3672 17.9856 17.0892 18.1147 16.7822C18.2439 16.4753 18.3104 16.1456 18.3104 15.8126C18.3104 15.4795 18.2439 15.1499 18.1147 14.8429C17.9856 14.536 17.7964 14.2579 17.5582 14.0251ZM10.4916 10.4917C9.90844 11.0734 9.16599 11.4692 8.35803 11.6291C7.55006 11.789 6.71282 11.7059 5.95208 11.3902C5.19133 11.0746 4.54121 10.5405 4.08384 9.85552C3.62646 9.17054 3.38236 8.36538 3.38236 7.54174C3.38236 6.7181 3.62646 5.91294 4.08384 5.22796C4.54121 4.54298 5.19133 4.00892 5.95208 3.69325C6.71282 3.37758 7.55006 3.29445 8.35803 3.45437C9.16599 3.61428 9.90844 4.01008 10.4916 4.59174C10.8796 4.97879 11.1875 5.43858 11.3975 5.94479C11.6076 6.451 11.7157 6.99368 11.7157 7.54174C11.7157 8.0898 11.6076 8.63248 11.3975 9.13869C11.1875 9.6449 10.8796 10.1047 10.4916 10.4917ZM16.3832 16.3834C16.3058 16.4615 16.2136 16.5235 16.1121 16.5658C16.0105 16.6081 15.9016 16.6299 15.7916 16.6299C15.6816 16.6299 15.5726 16.6081 15.4711 16.5658C15.3695 16.5235 15.2774 16.4615 15.1999 16.3834L13.4332 14.6167C13.3551 14.5393 13.2931 14.4471 13.2508 14.3456C13.2085 14.244 13.1867 14.1351 13.1867 14.0251C13.1867 13.9151 13.2085 13.8061 13.2508 13.7046C13.2931 13.603 13.3551 13.5109 13.4332 13.4334C13.5107 13.3553 13.6029 13.2933 13.7044 13.251C13.806 13.2087 13.9149 13.1869 14.0249 13.1869C14.1349 13.1869 14.2438 13.2087 14.3454 13.251C14.4469 13.2933 14.5391 13.3553 14.6166 13.4334L16.3832 15.2001C16.4614 15.2775 16.5233 15.3697 16.5657 15.4713C16.608 15.5728 16.6297 15.6817 16.6297 15.7917C16.6297 15.9017 16.608 16.0107 16.5657 16.1122C16.5233 16.2138 16.4614 16.3059 16.3832 16.3834Z" fill="#01426A"/>
</svg>
